<?xml version="1.0" standalone="no"?>
<!DOCTYPE svg PUBLIC "-//W3C//DTD SVG 20010904//EN"
 "http://www.w3.org/TR/2001/REC-SVG-20010904/DTD/svg10.dtd">
<svg version="1.0" xmlns="http://www.w3.org/2000/svg"
 width="500.000000pt" height="500.000000pt" viewBox="0 0 500.000000 500.000000"
 preserveAspectRatio="xMidYMid meet">

<g transform="translate(0.000000,500.000000) scale(0.100000,-0.100000)"
fill="#000000" stroke="none">
<path d="M2275 3378 c-36 -13 -82 -53 -101 -90 -8 -15 -14 -55 -14 -91 0 -51
6 -75 30 -123 43 -84 56 -100 73 -86 8 7 16 9 19 7 3 -3 3 6 1 20 -3 14 -12
25 -19 25 -17 0 -19 17 -2 22 9 3 9 6 0 12 -7 4 -12 2 -12 -3 0 -6 -6 -11 -14
-11 -10 0 -13 15 -12 63 2 80 26 121 88 153 53 27 79 29 129 13 55 -19 69 -37
69 -88 1 -37 3 -42 11 -28 6 10 8 24 5 32 -2 7 2 19 10 25 23 20 16 39 -33 88
-67 66 -149 88 -228 60z m-5 -364 c0 -8 -4 -12 -10 -9 -5 3 -10 10 -10 16 0 5
5 9 10 9 6 0 10 -7 10 -16z"/>
<path d="M2626 3275 c-3 -8 -3 -15 0 -15 3 0 12 7 20 15 13 13 13 15 1 15 -8
0 -17 -7 -21 -15z"/>
<path d="M2285 3250 c-3 -6 1 -7 9 -4 18 7 21 14 7 14 -6 0 -13 -4 -16 -10z"/>
<path d="M2556 3207 c-28 -36 -34 -56 -13 -38 8 6 18 7 22 3 5 -4 5 -1 1 6 -5
8 -1 21 10 33 9 10 15 22 12 25 -3 3 -18 -10 -32 -29z"/>
<path d="M2300 3030 c0 -11 2 -20 4 -20 2 0 6 9 9 20 3 11 1 20 -4 20 -5 0 -9
-9 -9 -20z"/>
<path d="M2804 3035 c3 -23 12 -26 13 -5 1 11 -2 20 -7 20 -4 0 -7 -7 -6 -15z"/>
<path d="M2609 3015 c-5 -17 -1 -21 18 -23 14 -1 21 2 18 8 -4 6 -10 8 -15 5
-5 -3 -10 3 -12 12 -3 16 -5 15 -9 -2z"/>
<path d="M2526 2993 c-6 -14 -5 -15 5 -6 7 7 10 15 7 18 -3 3 -9 -2 -12 -12z"/>
<path d="M2420 2951 c-8 -6 -18 -7 -22 -5 -16 10 -8 -2 14 -20 18 -16 20 -16
15 -2 -6 14 -2 16 16 12 12 -3 16 -3 9 0 -6 3 -10 10 -6 15 7 12 -7 11 -26 0z"/>
<path d="M2519 2923 c-13 -17 -13 -17 6 -3 11 8 22 16 24 17 2 2 0 3 -6 3 -6
0 -17 -8 -24 -17z"/>
<path d="M2371 2903 c11 -12 5 -17 -14 -14 -5 1 -6 -3 -2 -9 5 -8 11 -8 19 -1
7 6 17 7 22 3 4 -4 3 0 -4 9 -6 9 -10 18 -7 21 3 2 -2 5 -10 5 -11 0 -12 -4
-4 -14z"/>
<path d="M2120 2830 c0 -5 4 -10 9 -10 18 0 101 -92 94 -103 -3 -7 -3 -9 2 -5
5 5 26 -19 47 -52 22 -33 54 -74 73 -91 78 -74 205 -118 294 -103 25 4 51 8
58 9 6 0 23 11 37 24 30 28 21 50 -12 32 -41 -22 -180 -3 -267 35 -61 27 -20
29 79 5 92 -23 161 -27 171 -10 4 5 4 21 1 34 -7 27 -49 52 -136 80 -50 16
-91 35 -243 113 -81 41 -207 67 -207 42z"/>
<path d="M2463 2825 c0 -8 4 -12 9 -9 5 3 6 10 3 15 -9 13 -12 11 -12 -6z"/>
<path d="M2622 2833 c-6 -2 -9 -9 -6 -15 4 -6 0 -14 -7 -19 -10 -6 -8 -8 7 -7
16 2 21 8 20 25 0 13 -1 23 -1 22 0 0 -6 -3 -13 -6z"/>
<path d="M2439 2813 c6 -12 16 -25 22 -28 20 -13 15 0 -9 25 -22 23 -24 23
-13 3z"/>
<path d="M1893 2714 l-66 -69 74 -11 c118 -19 204 -60 349 -168 148 -111 256
-145 360 -115 l45 13 -70 6 c-93 9 -140 23 -205 63 -77 46 -106 73 -158 147
-77 109 -142 169 -204 183 -14 4 -33 10 -42 13 -11 4 -37 -15 -83 -62z"/>
<path d="M2590 2771 c0 -7 -4 -10 -8 -7 -5 3 -9 -2 -9 -10 0 -13 2 -13 16 0 8
9 12 19 8 22 -4 4 -7 2 -7 -5z"/>
<path d="M2543 2753 c-17 -6 -17 -23 0 -23 8 0 14 7 14 15 0 8 -1 15 -1 14 -1
0 -7 -3 -13 -6z"/>
<path d="M2924 2731 c4 -5 0 -11 -6 -14 -7 -3 -3 -4 9 -4 17 1 19 4 11 14 -12
15 -22 18 -14 4z"/>
<path d="M2776 2702 c-10 -16 9 -30 21 -17 10 10 9 14 -2 19 -8 3 -16 2 -19
-2z"/>
<path d="M2855 2690 c-11 -12 -20 -28 -21 -36 -2 -14 0 -14 19 -1 12 8 23 24
23 36 2 26 1 26 -21 1z m10 -19 c-3 -6 -11 -11 -17 -11 -6 0 -6 6 2 15 14 17
26 13 15 -4z"/>
<path d="M2895 2689 c-4 -6 -5 -12 -2 -15 2 -3 7 2 10 11 7 17 1 20 -8 4z"/>
<path d="M2743 2676 c-9 -11 -8 -15 6 -19 14 -3 17 0 14 14 -6 22 -5 22 -20 5z"/>
<path d="M2706 2662 c-3 -6 -1 -14 5 -17 14 -9 20 -2 10 14 -6 8 -11 9 -15 3z"/>
<path d="M2803 2635 c0 -8 4 -15 9 -15 4 0 8 4 8 9 0 6 -4 12 -8 15 -5 3 -9
-1 -9 -9z"/>
<path d="M2906 2642 c-3 -5 1 -9 9 -9 8 0 12 4 9 9 -3 4 -7 8 -9 8 -2 0 -6 -4
-9 -8z"/>
<path d="M3007 2600 c-8 -11 -17 -17 -22 -12 -5 4 -5 1 -1 -6 6 -11 13 -8 32
9 26 25 29 29 15 29 -6 0 -16 -9 -24 -20z"/>
<path d="M2770 2536 c0 -2 7 -7 16 -10 8 -3 12 -2 9 4 -6 10 -25 14 -25 6z"/>
<path d="M2876 2525 c-3 -9 0 -15 9 -15 9 0 12 6 9 15 -4 8 -7 15 -9 15 -2 0
-5 -7 -9 -15z"/>
<path d="M2907 2529 c7 -7 15 -10 18 -7 3 3 -2 9 -12 12 -14 6 -15 5 -6 -5z"/>
<path d="M2847 2516 c-3 -8 0 -17 7 -19 10 -4 12 1 9 14 -6 23 -9 24 -16 5z"/>
<path d="M2775 2461 c-3 -6 -10 -9 -15 -6 -4 3 -10 -1 -13 -9 -4 -10 0 -12 14
-9 21 6 34 21 26 29 -3 3 -8 0 -12 -5z"/>
<path d="M2696 2428 c3 -5 10 -6 15 -3 13 9 11 12 -6 12 -8 0 -12 -4 -9 -9z"/>
<path d="M2150 2160 c0 -45 -2 -50 -18 -41 -30 16 -72 1 -93 -33 -53 -86 12
-192 92 -151 17 9 29 11 29 5 0 -5 9 -10 20 -10 19 0 20 7 20 140 l0 140 -25
0 c-23 0 -25 -3 -25 -50z m-16 -76 c22 -8 22 -96 0 -115 -26 -21 -49 1 -52 52
-3 32 1 47 14 56 21 15 18 15 38 7z"/>
<path d="M2267 2204 c-4 -4 -7 -18 -7 -31 0 -18 5 -23 26 -23 22 0 25 4 22 27
-3 27 -26 41 -41 27z"/>
<path d="M1725 2188 c-2 -7 -6 -49 -7 -92 l-3 -80 -45 60 c-67 89 -91 114
-112 114 -17 0 -18 -11 -18 -130 l0 -130 25 0 c25 0 25 1 25 88 1 79 2 85 15
67 87 -118 122 -155 140 -153 19 3 20 11 20 133 0 116 -2 130 -18 133 -9 2
-19 -2 -22 -10z"/>
<path d="M2364 2183 c12 -3 15 -8 8 -12 -8 -5 -9 -17 -2 -41 20 -70 44 -80 42
-17 -2 62 -7 72 -38 74 -17 1 -21 -1 -10 -4z"/>
<path d="M2507 2176 c-4 -10 -1 -13 8 -9 8 3 12 9 9 14 -7 12 -11 11 -17 -5z"/>
<path d="M2540 2177 c0 -9 -5 -17 -11 -17 -5 0 -7 -5 -3 -12 5 -7 2 -9 -8 -6
-8 4 -15 0 -15 -7 0 -10 5 -11 18 -4 26 13 28 12 23 -15 -5 -29 20 -55 30 -30
3 9 2 22 -4 29 -6 7 -13 26 -16 41 -6 33 -14 45 -14 21z m30 -77 c0 -5 -5 -10
-11 -10 -5 0 -7 5 -4 10 3 6 8 10 11 10 2 0 4 -4 4 -10z"/>
<path d="M2658 2166 c-3 -14 -1 -29 4 -34 6 -6 3 -15 -6 -25 -15 -14 -14 -16
3 -14 10 0 17 6 14 12 -2 7 3 18 12 25 20 17 19 31 -2 24 -17 -5 -17 -5 0 6
22 15 22 30 -2 30 -12 0 -20 -9 -23 -24z"/>
<path d="M1864 2120 c-47 -19 -39 -59 7 -41 29 10 59 -2 59 -24 0 -9 -10 -15
-25 -15 -35 0 -82 -26 -90 -48 -15 -50 34 -81 90 -57 19 7 35 10 35 4 0 -5 9
-9 20 -9 18 0 20 7 20 74 0 56 -4 79 -17 95 -21 24 -68 35 -99 21z m66 -123
c0 -31 -51 -50 -66 -25 -8 13 22 38 48 38 10 0 18 -6 18 -13z"/>
<path d="M3343 2123 c-29 -6 -49 -31 -36 -44 6 -6 19 -6 37 1 19 7 33 7 47 0
29 -16 24 -40 -8 -40 -42 0 -93 -35 -93 -64 0 -37 21 -46 95 -43 l68 3 -2 74
c-2 55 -7 80 -19 92 -19 19 -56 28 -89 21z m67 -126 c0 -20 -22 -37 -47 -37
-25 0 -30 19 -11 38 16 16 58 15 58 -1z"/>
<path d="M2260 2025 c0 -95 0 -95 25 -95 25 0 25 0 25 95 0 95 0 95 -25 95
-25 0 -25 0 -25 -95z"/>
<path d="M2768 2109 c-22 -12 -23 -29 -3 -29 8 0 15 3 15 8 0 4 17 6 37 5 51
-2 50 -2 33 -13 -11 -7 -11 -10 -2 -10 27 0 -8 -40 -36 -40 -35 -1 -67 -24
-56 -42 6 -11 5 -11 -8 0 -13 11 -15 9 -15 -13 0 -14 4 -28 9 -31 18 -11 69
-15 81 -6 7 5 22 12 35 15 20 5 21 3 10 -10 -11 -14 -11 -15 2 -11 18 6 28
128 10 128 -5 0 -10 9 -10 20 0 34 -63 52 -102 29z m78 -122 c1 -34 -39 -58
-62 -35 -9 9 -13 24 -9 39 5 19 12 24 38 23 27 -1 32 -5 33 -27z"/>
<path d="M2798 1953 c7 -3 16 -2 19 1 4 3 -2 6 -13 5 -11 0 -14 -3 -6 -6z"/>
<path d="M2950 2092 c0 -17 8 -32 21 -41 20 -12 21 -11 17 13 -4 18 -2 24 6
18 17 -13 60 1 64 21 4 20 -27 24 -46 5 -9 -9 -15 -9 -24 0 -21 21 -38 14 -38
-16z"/>
<path d="M3107 2102 c-21 -23 -22 -51 -1 -80 10 -15 11 -22 3 -22 -7 0 -9 -10
-6 -27 3 -16 -1 -32 -10 -41 -35 -35 11 -72 84 -68 88 5 114 84 35 105 -20 6
-47 11 -59 11 -13 0 -23 5 -23 10 0 6 12 10 26 10 28 0 65 16 76 34 4 6 8 21
8 34 0 12 5 22 10 22 6 0 10 7 10 15 0 24 -131 21 -153 -3z m87 -27 c2 -7 -1
-21 -8 -30 -16 -22 -56 -11 -56 15 0 35 51 47 64 15z m13 -151 c8 -21 -10 -36
-42 -36 -32 0 -50 15 -42 36 4 10 19 16 42 16 23 0 38 -6 42 -16z"/>
<path d="M2497 2093 c3 -7 9 -13 14 -13 5 0 9 6 9 13 0 8 -6 14 -14 14 -8 0
-12 -6 -9 -14z"/>
<path d="M2482 2086 c4 -5 4 -14 -1 -20 -4 -6 -11 -21 -13 -33 -4 -16 -1 -21
12 -20 10 1 16 5 14 9 -3 4 0 16 5 27 8 15 7 22 -7 32 -9 7 -14 9 -10 5z"/>
<path d="M2640 2070 c8 -5 10 -10 4 -10 -7 0 -17 -21 -24 -47 -11 -43 -14 -45
-19 -23 -7 24 -7 24 -13 4 -3 -12 -2 -28 3 -35 8 -11 12 -10 24 5 8 11 17 17
19 15 7 -7 -7 -24 -29 -37 -20 -11 -20 -11 2 -12 19 0 28 12 38 50 1 3 5 13 9
23 5 9 6 24 2 32 -3 8 -1 15 5 15 6 0 8 4 5 9 -4 5 0 12 6 14 7 3 0 6 -17 6
-23 1 -26 -2 -15 -9z"/>
<path d="M2419 2065 c-1 -3 -2 -8 -3 -12 -1 -5 -4 -13 -8 -19 -11 -16 7 -69
23 -69 10 0 13 10 11 40 -2 22 -8 42 -13 43 -5 2 -7 8 -3 13 3 5 3 9 0 9 -3 0
-7 -2 -7 -5z"/>
<path d="M2586 2037 c3 -10 9 -15 12 -12 3 3 0 11 -7 18 -10 9 -11 8 -5 -6z"/>
<path d="M2950 1999 c0 -44 2 -50 18 -45 14 5 14 4 -2 -9 -19 -15 -19 -15 2
-15 26 0 28 20 10 80 -17 54 -28 50 -28 -11z"/>
<path d="M2462 1960 c1 -35 7 -34 14 4 2 14 0 26 -5 26 -5 0 -9 -14 -9 -30z"/>
<path d="M2435 1940 c-3 -5 -1 -10 4 -10 6 0 11 5 11 10 0 6 -2 10 -4 10 -3 0
-8 -4 -11 -10z"/>
<path d="M1603 1853 c15 -2 39 -2 55 0 15 2 2 4 -28 4 -30 0 -43 -2 -27 -4z"/>
<path d="M1838 1853 c28 -2 76 -2 105 0 28 2 5 3 -53 3 -58 0 -81 -1 -52 -3z"/>
<path d="M2053 1853 c9 -2 25 -2 35 0 9 3 1 5 -18 5 -19 0 -27 -2 -17 -5z"/>
<path d="M2128 1853 c12 -2 30 -2 40 0 9 3 -1 5 -23 4 -22 0 -30 -2 -17 -4z"/>
<path d="M2258 1853 c23 -2 61 -2 85 0 23 2 4 4 -43 4 -47 0 -66 -2 -42 -4z"/>
<path d="M2477 1853 c18 -2 50 -2 70 0 21 2 7 4 -32 4 -38 0 -55 -2 -38 -4z"/>
<path d="M2618 1853 c17 -2 47 -2 65 0 17 2 3 4 -33 4 -36 0 -50 -2 -32 -4z"/>
<path d="M2733 1853 c9 -2 23 -2 30 0 6 3 -1 5 -18 5 -16 0 -22 -2 -12 -5z"/>
<path d="M2798 1853 c12 -2 32 -2 45 0 12 2 2 4 -23 4 -25 0 -35 -2 -22 -4z"/>
<path d="M2988 1853 c7 -3 16 -2 19 1 4 3 -2 6 -13 5 -11 0 -14 -3 -6 -6z"/>
<path d="M3313 1853 c9 -2 25 -2 35 0 9 3 1 5 -18 5 -19 0 -27 -2 -17 -5z"/>
<path d="M3378 1853 c6 -2 18 -2 25 0 6 3 1 5 -13 5 -14 0 -19 -2 -12 -5z"/>
<path d="M3161 1744 c0 -11 3 -14 6 -6 3 7 2 16 -1 19 -3 4 -6 -2 -5 -13z"/>
</g>
</svg>
